<?xml version="1.0" standalone="no"?>
<svg version="1.0" xmlns="http://www.w3.org/2000/svg"
 width="262.000000pt" height="262.000000pt" viewBox="0 0 262.000000 262.000000"
 preserveAspectRatio="xMidYMid meet">
<metadata>
Created by potrace 1.11, written by Peter Selinger 2001-2013
</metadata>
<g transform="translate(0.000000,262.000000) scale(0.100000,-0.100000)"
fill="#000000" stroke="none">
<path d="M0 1310 l0 -1310 1310 0 1310 0 0 1310 0 1310 -1310 0 -1310 0 0
-1310z m1085 671 c31 -21 42 -35 47 -66 4 -22 10 -55 14 -72 l6 -33 -74 0
c-71 0 -76 2 -105 33 -32 33 -73 106 -73 130 0 25 22 35 83 35 51 0 69 -4 102
-27z m437 9 c74 -21 91 -91 33 -136 -32 -24 -38 -25 -65 -14 -17 7 -44 10 -65
6 l-35 -7 0 62 c0 95 33 116 132 89z m-886 -56 c29 -20 74 -92 74 -120 0 -11
-5 -25 -12 -32 -13 -13 -91 -15 -121 -4 -25 10 -76 92 -70 111 20 56 80 77
129 45z m24 -285 c31 -32 46 -66 35 -77 -3 -4 -40 -6 -81 -6 -59 1 -81 5 -102
21 -60 45 -24 92 71 93 42 0 53 -4 77 -31z m1361 -268 c49 -49 33 -83 -46 -99
-77 -16 -151 -5 -175 25 -28 36 -13 54 67 80 95 30 119 29 154 -6z m-1209 -18
c10 -9 18 -28 18 -43 0 -23 -7 -31 -41 -44 -52 -21 -100 -13 -140 25 -22 21
-30 36 -27 56 3 25 8 29 48 33 55 6 119 -6 142 -27z m782 -9 c32 -33 33 -47 4
-66 -28 -18 -172 -22 -202 -6 -79 41 -20 98 100 98 64 0 74 -3 98 -26z m-380
-17 c9 -24 6 -31 -17 -55 -25 -24 -36 -27 -111 -30 -66 -3 -86 -1 -99 12 -13
13 -14 22 -6 44 13 34 25 41 69 43 19 0 44 4 55 9 11 5 38 8 60 7 34 -2 41 -6
49 -30z m944 -219 c7 -7 12 -22 12 -34 0 -29 -73 -109 -111 -123 -28 -10 -34
-8 -60 18 -16 16 -29 36 -29 43 0 32 108 107 156 108 11 0 25 -5 32 -12z m-4
-279 c39 -21 58 -39 65 -61 12 -34 7 -44 -24 -50 -11 -2 -28 -19 -38 -41 -18
-39 -32 -44 -96 -31 -23 5 -38 18 -56 49 -32 53 -31 79 0 111 20 19 74 51 93
54 1 0 27 -14 56 -31z m-369 -113 c9 -14 19 -48 22 -78 7 -71 -12 -89 -97 -93
-55 -3 -65 0 -91 23 -30 27 -30 28 -18 77 17 73 22 79 70 86 86 12 98 10 114
-15z m-462 -18 c38 0 38 0 31 -31 -21 -99 -83 -137 -173 -106 -41 14 -53 45
-35 81 19 36 81 70 114 62 14 -4 42 -6 63 -6z"/>
</g>
</svg>
