<?xml version="1.0" standalone="no"?>
<svg version="1.0" xmlns="http://www.w3.org/2000/svg"
 width="700.000000pt" height="700.000000pt" viewBox="0 0 700.000000 700.000000"
 preserveAspectRatio="xMidYMid meet">
<metadata>
Created by potrace 1.11, written by Peter Selinger 2001-2013
</metadata>
<g transform="translate(0.000000,700.000000) scale(0.100000,-0.100000)"
fill="#000000" stroke="none">
<path d="M1809 5913 l0 -998 -525 -540 c-289 -297 -601 -619 -695 -716 l-169
-177 1237 -1358 c680 -748 1373 -1508 1539 -1691 l303 -332 1533 1684 c843
927 1533 1691 1533 1698 0 8 -309 333 -687 723 l-688 709 0 997 0 998 -305 0
-305 0 0 -1020 0 -1020 -1080 0 -1080 0 0 1020 0 1020 -305 0 -305 0 -1 -997z
m372 834 c71 -47 104 -130 97 -237 -10 -138 -105 -232 -202 -200 -114 37 -167
215 -104 351 46 100 134 136 209 86z m2765 4 c74 -45 109 -126 102 -235 -13
-192 -165 -280 -271 -155 -42 48 -59 103 -58 185 1 160 122 269 227 205z
m-2609 -2950 l-440 -438 694 -1073 c382 -590 698 -1080 702 -1089 13 -26 -7
-2 -937 1102 -488 580 -887 1059 -885 1063 2 5 210 204 462 442 l458 432 193
0 193 0 -440 -439z m2683 48 c228 -214 437 -412 464 -438 l49 -49 -904 -1073
c-936 -1112 -944 -1121 -936 -1104 3 6 321 498 707 1095 l702 1085 -444 437
-443 438 195 0 195 0 415 -391z m-1099 -52 l416 -433 -416 -1096 c-229 -603
-419 -1099 -421 -1101 -5 -5 -835 2175 -835 2192 0 11 823 871 833 871 4 0
195 -195 423 -433z"/>
<path d="M3390 3552 c-57 -75 -104 -144 -104 -152 1 -32 208 -720 215 -713 8
9 209 692 209 712 0 14 -200 290 -210 291 -3 0 -52 -62 -110 -138z"/>
</g>
</svg>
